<svg width="400" height="300" xmlns="http://www.w3.org/2000/svg">
  <defs>
    <linearGradient id="straccGrad" x1="0%" y1="0%" x2="0%" y2="100%">
      <stop offset="0%" style="stop-color:#ffffff;stop-opacity:1" />
      <stop offset="100%" style="stop-color:#f5f5f5;stop-opacity:1" />
    </linearGradient>
    <pattern id="waffle9" x="0" y="0" width="20" height="20" patternUnits="userSpaceOnUse">
      <rect width="20" height="20" fill="#d4a574"/>
      <line x1="0" y1="0" x2="20" y2="20" stroke="#b8956a" stroke-width="1"/>
      <line x1="20" y1="0" x2="0" y2="20" stroke="#b8956a" stroke-width="1"/>
    </pattern>
  </defs>
  
  <rect width="400" height="300" fill="#f5f5f5"/>
  
  <path d="M 200 280 L 160 140 L 240 140 Z" fill="url(#waffle9)" stroke="#a68a64" stroke-width="2"/>
  
  <circle cx="200" cy="120" r="45" fill="url(#straccGrad)" stroke="#e0e0e0" stroke-width="2"/>
  <ellipse cx="185" cy="115" rx="15" ry="20" fill="white" opacity="0.6"/>
  
  <!-- Chocolate chips -->
  <ellipse cx="195" cy="110" rx="3" ry="5" fill="#3e2723" transform="rotate(20 195 110)"/>
  <ellipse cx="210" cy="120" rx="4" ry="6" fill="#3e2723" transform="rotate(-15 210 120)"/>
  <ellipse cx="190" cy="125" rx="3" ry="4" fill="#3e2723" transform="rotate(30 190 125)"/>
  <ellipse cx="205" cy="130" rx="2" ry="4" fill="#3e2723" transform="rotate(-20 205 130)"/>
  <ellipse cx="198" cy="118" rx="2" ry="3" fill="#3e2723"/>
</svg>
